{"title":"First Men In The Moon 1964 1080p BluRay Legendado PT-BR","uid":13744075,"size":4923082706,"categoryP":"video","categoryS":"hd___movies","magnet":"?xt=urn:btih:193303812caf8db7754cee1ab965b68dab35e935&amp;dn=First+Men+In+The+Moon+1964+1080p+BluRay+Legendado+PT-BR&amp;tr=udp%3A%2F%2Ftracker.leechers-paradise.org%3A6969&amp;tr=udp%3A%2F%2Fzer0day.ch%3A1337&amp;tr=udp%3A%2F%2Fopen.demonii.com%3A1337&amp;tr=udp%3A%2F%2Ftracker.coppersurfer.tk%3A6969&amp;tr=udp%3A%2F%2Fexodus.desync.com%3A6969","seeders":1,"leechers":0,"uploader":null,"files":1,"time":1457104488,"description":"Audio: English\r\nLegendas/Subtitles: Português / English (MKV track)\r\n\r\n===================================================\r\n\r\nBased on the HG Wells story. The world is delighted when a space craft containing a crew made up of the world's astronauts lands on the moon, they think for the first time. But the delight turns to shock when the astronauts discover an old British flag and a document declaring that the moon is taken for Queen Victoria proving that the astronauts were not the first men on the moon.\r\n\r\nThis is movie number ten for the great Ray Harryhausen, who provides his usual stunning animation.\r\n\r\n===================================================\r\n\r\nBaseado em conto de HG Wells. O mundo fica encantado quando uma espaçonave com uma tripulação composta por astronautas de vários países pousa na Lua. Imaginam serem os primeiros. Mas o encanto transforma-se em choque quando descobrem uma velha bandeira Britânica e um documento declarando que a Lua foi conquistada pela Rainha Vitória, provando que os astronautas não foram os primeiros homens na Lua. \r\n\r\nDécimo trabalho de Ray Harryhausen, que produziu maravilhosas animações quadro a quadro.\r\n\r\n===================================================\r\nVideo\r\nID                             : 1\r\nFormat                         : AVC\r\nFormat/Info                    : Advanced Video Codec\r\nFormat profile                 :   \r\nFormat settings, CABAC         : Yes\r\nFormat settings, ReFrames      : 4 frames\r\nCodec ID                       : V_MPEG4/ISO/AVC\r\nDuration                       : 1h 43mn\r\nBit rate                       : 5 599 Kbps\r\nWidth                          : 1 920 pixels\r\nHeight                         : 816 pixels\r\nDisplay aspect ratio           : 2.35:1\r\nFrame rate mode                : Constant\r\nFrame rate                     : 23.976 fps\r\nColor space                    : YUV\r\nChroma subsampling             : 4:2:0\r\nBit depth                      : 8 bits\r\nScan type                      : Progressive\r\nBits/(Pixel*Frame)             : 0.149\r\nStream size                    : 3.94 GiB (86%)\r\n\r\n\r\nAudio\r\nID                             : 2\r\nFormat                         : DTS\r\nFormat/Info                    : Digital Theater Systems\r\nMode                           : 16\r\nFormat settings, Endianness    : Big\r\nCodec ID                       : A_DTS\r\nDuration                       : 1h 43mn\r\nBit rate mode                  : Constant\r\nBit rate                       : 768 Kbps\r\nChannel(s)                     : 6 channels\r\nChannel positions              : Front: L C R, Side: L R, LFE\r\nSampling rate                  : 48.0 KHz\r\nBit depth                      : 24 bits\r\nCompression mode               : Lossy\r\nStream size                    : 566 MiB (12%)\r\nLanguage                       : English\r\nDefault                        : Yes\r\nForced                         : No\r\n\r\nText #1\r\nID                             : 3\r\nFormat                         : UTF-8\r\nCodec ID                       : S_TEXT/UTF8\r\nCodec ID/Info                  : UTF-8 Plain Text\r\nLanguage                       : Portuguese\r\nDefault                        : Yes\r\nForced                         : No\r\n\r\nText #2\r\nID                             : 4\r\nFormat                         : UTF-8\r\nCodec ID                       : S_TEXT/UTF8\r\nCodec ID/Info                  : UTF-8 Plain Text\r\nLanguage                       : English\r\nDefault                        : No\r\nForced                         : No","torrent":{"xt":"urn:btih:193303812caf8db7754cee1ab965b68dab35e935","amp;dn":"First+Men+In+The+Moon+1964+1080p+BluRay+Legendado+PT-BR","amp;tr":["udp%3A%2F%2Ftracker.leechers-paradise.org%3A6969","udp%3A%2F%2Fzer0day.ch%3A1337","udp%3A%2F%2Fopen.demonii.com%3A1337","udp%3A%2F%2Ftracker.coppersurfer.tk%3A6969","udp%3A%2F%2Fexodus.desync.com%3A6969"],"infoHash":"193303812caf8db7754cee1ab965b68dab35e935","infoHashBuffer":{"type":"Buffer","data":[25,51,3,129,44,175,141,183,117,76,238,26,185,101,182,141,171,53,233,53]},"announce":[],"urlList":[]}}